<svg xmlns="http://www.w3.org/2000/svg" viewBox="0 0 974.37 951.4"><defs><style>.cls-1{isolation:isolate;}.cls-2,.cls-28{opacity:0.08;}.cls-3{fill:#ebceb1;}.cls-4{fill:#d1d9db;}.cls-5{fill:#333;}.cls-6{fill:#1a1a1a;}.cls-7{fill:#3c6794;}.cls-8{fill:#514943;}.cls-9{fill:#eacdb0;}.cls-10{fill:#d1b337;}.cls-11{fill:#efd154;}.cls-12{fill:#c1b23f;}.cls-13{fill:#ada03b;}.cls-14{fill:#faeb7d;}.cls-15{fill:#659993;}.cls-16{mix-blend-mode:multiply;opacity:0.11;}.cls-17{fill:#8c314c;}.cls-18,.cls-26,.cls-28{fill:#fff;}.cls-19{fill:#782441;}.cls-20{fill:#bb899a;}.cls-21{fill:#a63f65;}.cls-22{opacity:0.14;}.cls-23{fill:#435b6e;}.cls-24{fill:#2e414c;}.cls-25{fill:#22323a;}.cls-26{opacity:0.15;}.cls-27{fill:#5c7789;}.cls-29{fill:#afbdc6;}.cls-30{fill:#c1d0db;}.cls-31{fill:#e29530;}.cls-32{fill:#534741;}</style></defs><g class="cls-1"><g id="Layer_2" data-name="Layer 2"><g id="shadow"><path class="cls-2" d="M535.09,867.75c16.6-1.77,33.18-3.68,49.76-5.6,54.82-6.32,109.65-10.28,164.58-14.14,39-2.75,78.24-4.2,117.21-.17,33.51,3.46,74,10.42,99.84,36.39,14.51,14.56,8.34,33-13,45.36-22.55,13.11-51.17,13.49-76.1,15.32-234.39,17.23-467.52-5.38-702-4.44-33.17.13-66.87,2.31-100,3.78-20.14.89-46.31,4.68-66.09-.8C-3.21,940-2.28,927.91,7.23,921.66c17.37-11.42,43.54-12.72,63.3-14q77.54-5.08,155-11.21Q380.47,884.19,535.09,867.75Z"/></g><g id="object"><polygon class="cls-3" points="702.18 338.38 704.77 317.97 713.49 318.83 714.79 333.26 719.08 331.74 714.74 348.9 705.58 349.24 702.18 338.38"/><path class="cls-4" d="M755.48,465.7c13.15,1.18,28.23.56,36.95-9.35,7.09-8.06,7.69-20.07,5.35-30.55a5,5,0,0,0-1.68-3.22,5.11,5.11,0,0,0-3.33-.49l-35.12,2.71c-6.56.5-19.71,4.16-23.29-1-4-5.77-4.06-20.07-5.44-26.91l-10.77-53.3L700,345.22q.25,24.54.53,49.08.18,17.55.37,35.09C701.25,460.52,730,463.43,755.48,465.7Z"/><path class="cls-4" d="M832.05,430.48c10.73,8.16,15.3,22.8,18,36.35,10.94,55.79,5.36,113.34-.4,169.9-.65,6.33-2.17,9.07-8.27,6.35-38.29-17.07-76-39.1-117.78-41.78,10.49-35.5,11.6-73,18.71-109.38,2.06-10.54,4.65-21.06,9.17-30.81,5.88-12.71,15.28-26.45,25.69-35.92,9.8-8.92,25.38-5,37.14-2,4.87,1.23,9.81,2.49,14.2,4.94A32.41,32.41,0,0,1,832.05,430.48Z"/><polygon class="cls-3" points="322.16 455.99 332.81 458.99 341.34 454.17 343.27 455.43 341.79 457.86 350.01 455.84 356.17 458.77 357.66 467.63 353.16 475.84 344.06 476.45 334.37 471.73 319.6 468.24 322.16 455.99"/><path class="cls-4" d="M327,450.42,220.22,424.25c-3.69-.9-8.1-5-11.29-6.92l-22.76-14C181,400.18,171.88,392,165.59,392c-10.26,0-15.68,15.3-15.76,23.51-.23,25.21,23.32,36,40.87,49.53l16.93,8.76,118.54,2.37Z"/><path class="cls-3" d="M197.79,320.69c-13.61,4.54-28.13-5.39-41.26,1.17-8.54,4.27-14.34,15-15.74,25.86-.65,5.06-.44,10.34,1.38,14.77a22.5,22.5,0,0,0,5,7.3,27.09,27.09,0,0,0,9.29,6.08,72.94,72.94,0,0,1-4.74,10.49l20.1,3.78,2.61-13.69a28,28,0,0,0,5.54-2.39c10.84-6.14,18.73-19.85,19.54-33.94C199.93,333.53,198.88,327.06,197.79,320.69Z"/><path class="cls-5" d="M128.9,349.77c-.58-1-1.13-2-1.63-3-6-12.45-9.27-27.06-.34-39.06,9.08-12.22,27.7-17.57,41.92-13.95,7.84,2,16.13,4.68,23.81,2.16a10.72,10.72,0,0,0,5.84-4.08c1.2-1.89,1.52-4.25,2.76-6.11,2.92-4.36,10.89-3.33,12.61,1.63.5,1.45.53,3.07,1.29,4.41,1.68,3,5.78,3.1,9.16,3.54a4.41,4.41,0,0,1,2.94,1.26c1.26,1.55.06,4-1.67,5-2.38,1.36-6.55,1-8.06,3.66-1.09,1.94.58,5.65.3,7.89-1,7.83-7.74,14.94-14.88,17.61-6.84,2.55-13-.22-19.79-2-1.93-.5-4-1.71-5.89-2-2.39-.33-4.74.84-7,1.35-2.85.63-5.81.27-8.72,0s-5.94-.33-8.64.77-5,3.72-4.83,6.63c.19,3.53,3.75,6.27,3.68,9.81-.06,3.06-2.78,5.35-4,8.18-.9,2.2-.92,4.85-2.57,6.56-.73.76-1.72,1.25-2.38,2.07-.87,1.07-1.13,2.64-2.29,3.39s-3.08.17-4.07-1a12.09,12.09,0,0,1-1.88-4.14C133.29,356.53,130.94,353.24,128.9,349.77Z"/><path class="cls-4" d="M154.59,384.87c-3-.31-6.28-.58-8.94.88-2.39,1.31-3.82,3.77-5.11,6.12A353.9,353.9,0,0,0,98.77,595.69a617.24,617.24,0,0,1,122.9-9.6l-11.25-81.58c-2.77-20.06-5.54-40.15-10.14-59.88a332.3,332.3,0,0,0-16.22-50.76C179.79,383.46,164.24,385.85,154.59,384.87Z"/><path class="cls-6" d="M242.65,904.1l7.9,7.38c5.09,4.76,3.93,13.38-2.46,16.17C244.33,929.29,239,929,231.7,924l-16.84-19.14,2.74-6.19L241.91,895Z"/><path class="cls-7" d="M226.12,579.62l39.14,159.93L253.73,896l-38.62,3.33-8.92-141.13s-84.73-154.64-79.88-158S226.12,579.62,226.12,579.62Z"/><path class="cls-6" d="M122.86,904.1l7.92,7.36c5.1,4.75,3.95,13.37-2.43,16.17-3.76,1.65-9.06,1.41-16.4-3.59L95.07,904.93V896l6.38-5.63L120,893.84Z"/><path class="cls-7" d="M199.37,589.75,187.23,754l-57,144.55-40.07-8,35.1-137S92.43,580.23,98.07,578.54,199.37,589.75,199.37,589.75Z"/><polygon class="cls-7" points="95.07 583.4 110.25 546.69 163.09 529.16 153.01 462.23 205.73 453.7 214.86 547.87 227.78 586.42 100.38 609.7 95.07 583.4"/><path class="cls-7" d="M155.86,433c.09-10.35-.45-22.13-8.35-28.81a9.92,9.92,0,0,0-6.3-2.67c-4.75,0-8,4.67-10.35,8.8-.79-6.15-1.24-13,2.37-18,4.58-6.42,14.55-7.21,21.28-3.1s10.53,11.86,12,19.62.85,15.72.85,23.61c0,11.5,1.19,23,2.4,34.4-4.61-.3-9.1.64-13.59.83C153.39,457.62,155.77,443.68,155.86,433Z"/><path class="cls-7" d="M191.49,422.32c-1.14-10-3.56-21-11.84-26.64-2.05-1.41-4.7-2.95-4.57-5.43a4.46,4.46,0,0,1,2.43-3.41c4.2-2.45,9.88-.35,13,3.41s4.19,8.73,5.11,13.5a380.94,380.94,0,0,1,6.6,57.63c.11,2.91-7,1.29-8.16,0-2-2.14-.87-7.18-.88-9.76A264.92,264.92,0,0,0,191.49,422.32Z"/><polygon class="cls-8" points="807.34 868.96 805.75 879.66 809.38 900 821.33 898.86 823.58 868.74 821.82 863.91 807.34 868.96"/><polygon class="cls-8" points="751.15 898.38 732.43 912.1 734.76 922.36 769.04 914.18 766.25 899.37 751.15 898.38"/><polygon class="cls-7" points="714.26 628.65 714.88 769.41 746.25 901.52 771.79 901.52 770.2 748.28 785.57 632.46 774.31 609.54 717.55 615.99 714.26 628.65"/><polygon class="cls-7" points="779 732.24 805.75 866.62 829.01 863.91 835.38 758.96 847.33 644.18 835.28 610.61 770.33 610.61 779 732.24"/><path class="cls-9" d="M840.89,382.62c-2.42-22.95-31.61-37-44.07-13.64-3.75,7-6.73,14.7-6.9,22.68s2.87,16.32,9.23,21l.11.07-2.1,5.79a1.38,1.38,0,0,0,1,2.15l6.77,2.57a7.86,7.86,0,0,0,3.48.73c2.61-.27,4.25-3,4.92-5.61.15-.61.28-1.24.41-1.88C828.59,414.61,842.47,397.63,840.89,382.62Z"/><path class="cls-10" d="M697.14,125.18a37.41,37.41,0,1,0,47.47-23.35A37.4,37.4,0,0,0,697.14,125.18Zm22.91,7.8a13.21,13.21,0,1,1,8.24,16.76A13.21,13.21,0,0,1,720.05,133Z"/><path class="cls-11" d="M616.25,117.79a116.82,116.82,0,0,0-1.56,23.3l-19.38,6.67,6.33,32,20.48-1.21a118.28,118.28,0,0,0,10.3,20.94L619,215l21.48,24.55,17.12-11.28a116.62,116.62,0,0,0,19.4,13L673,261.36l30.87,10.52,9.19-18.34a117.59,117.59,0,0,0,23.3,1.57l6.67,19.38,32-6.33-1.21-20.49a118.57,118.57,0,0,0,20.94-10.29l15.48,13.46,24.55-21.48-11.28-17.11a117.28,117.28,0,0,0,13-19.41l20.14,3.91,10.51-30.87-18.33-9.19a116.77,116.77,0,0,0,1.56-23.3l19.38-6.67-6.32-32L843,95.94A117.6,117.6,0,0,0,832.68,75l13.47-15.49L824.67,35,807.55,46.24a117.19,117.19,0,0,0-19.4-13l3.91-20.13L761.19,2.61,752,20.94a117.57,117.57,0,0,0-23.3-1.56L722,0,690,6.33l1.21,20.48a119.31,119.31,0,0,0-20.94,10.3L654.82,23.65,630.27,45.13l11.28,17.11a116.86,116.86,0,0,0-13,19.41l-20.14-3.92-10.51,30.88Zm204.81,41.3-60.93-20.76a27.68,27.68,0,0,0-11.61-23.6l20.76-60.92A91.17,91.17,0,0,1,821.06,159.09Zm-89.6,5.73a27.67,27.67,0,0,0,23.6-11.6L816,174A91.19,91.19,0,0,1,710.7,225.75Zm-3.17-15.08a13.21,13.21,0,1,1,16.76-8.24A13.21,13.21,0,0,1,728.29,149.74ZM644,115.4,705,136.15a27.65,27.65,0,0,0,11.61,23.6l-20.76,60.93A91.18,91.18,0,0,1,644,115.4Zm5.07-14.89A91.18,91.18,0,0,1,754.4,48.74l-20.76,60.92A27.65,27.65,0,0,0,710,121.27Z"/><path class="cls-12" d="M631.79,102.92A106.45,106.45,0,1,1,698.23,238,106.56,106.56,0,0,1,631.79,102.92Zm4.25,1.44A102,102,0,1,0,765.43,40.73,102.08,102.08,0,0,0,636,104.36Z"/><path class="cls-10" d="M642.21,125.14a91.18,91.18,0,0,0,53.61,95.54l7.33-21.52q6.47,5.63,13,10.68l-5.42,15.91a90.68,90.68,0,0,0,31,2.19,350.08,350.08,0,0,0,33.84,19c-.58.23-1.14.48-1.72.69l1.21,20.49-32,6.33-6.67-19.38a117.59,117.59,0,0,1-23.3-1.57l-9.19,18.34L673,261.36,677,241.23a116.62,116.62,0,0,1-19.4-13l-17.12,11.28L619,215l13.47-15.48a118.28,118.28,0,0,1-10.3-20.94l-20.48,1.21-6.33-32,19.38-6.67a116.82,116.82,0,0,1,1.56-23.3l-18.33-9.18,10.51-30.88,13.69,2.66A267.19,267.19,0,0,0,642.21,125.14Z"/><path class="cls-13" d="M634.3,110A101.9,101.9,0,0,0,755.83,236.47c1.9,1.09,3.78,2.14,5.64,3.17A106.38,106.38,0,0,1,631.46,104C632.39,106,633.33,108,634.3,110Z"/><path class="cls-14" d="M784.09,30.79c.11.38,3.88-16,3.88-16L763.24,6.47S779.47,15.11,784.09,30.79Z"/><path class="cls-15" d="M422,404.41l-14,7q1,7.93,2.75,15.84T415,442.77l15.64.4A22.67,22.67,0,0,1,449,478.31l-8.64,13.12A165.77,165.77,0,0,0,462.09,515l13.76-7.48a22.67,22.67,0,0,1,33.46,21.25l-.92,15.63A165.37,165.37,0,0,0,539,554.1l8.2-13.4a22.67,22.67,0,0,1,39.61,1.68l7,14q7.93-1,15.84-2.76t15.52-4.24l.4-15.64a22.67,22.67,0,0,1,35.13-18.35L673.84,524a165.23,165.23,0,0,0,23.61-21.76L690,488.49A22.67,22.67,0,0,1,711.22,455l15.64.92a165.1,165.1,0,0,0,9.65-30.62l-13.4-8.2a22.68,22.68,0,0,1,1.68-39.61l14-7q-1-7.93-2.75-15.84t-4.25-15.51l-15.63-.4a22.68,22.68,0,0,1-18.36-35.14l8.64-13.12a165.19,165.19,0,0,0-21.76-23.61l-13.75,7.48a22.68,22.68,0,0,1-33.47-21.25l.92-15.63a165.27,165.27,0,0,0-30.61-9.66l-8.21,13.4a22.67,22.67,0,0,1-39.6-1.68l-7-14q-7.93,1-15.85,2.76t-15.51,4.24l-.4,15.64A22.67,22.67,0,0,1,486,266.56l-13.12-8.64a165.16,165.16,0,0,0-23.6,21.76l7.47,13.76a22.67,22.67,0,0,1-21.25,33.46L419.9,326a165.13,165.13,0,0,0-9.66,30.62l13.4,8.2A22.68,22.68,0,0,1,422,404.41Zm138.15-30.9c-.54.41-1.07.84-1.58,1.31a23.36,23.36,0,0,0-2,2.11L490.42,367a86.5,86.5,0,0,1,44.37-53.27,9.44,9.44,0,0,1,13.41,6.39Zm69.45-32.3-45.7,30.51a22.07,22.07,0,0,0-5.91-2.19L566,316.12a9.44,9.44,0,0,1,9.43-11.49,86.49,86.49,0,0,1,55.16,21.7A9.42,9.42,0,0,1,629.57,341.21Zm-55.2,36.61A13.18,13.18,0,1,1,560.23,390,13.17,13.17,0,0,1,574.37,377.82Zm20.8,15.47a22,22,0,0,0-.35-6.91l45.34-30.27a9.41,9.41,0,0,1,14,4.45,87.85,87.85,0,0,1,3.44,11.6,85.8,85.8,0,0,1-4.83,52.64,9.45,9.45,0,0,1-14.68,3.67ZM547,461.57l24.15-48.8a22,22,0,0,0,14.55-3.65l42,34.4a9.43,9.43,0,0,1,0,14.63,86.53,86.53,0,0,1-74.45,16.78A9.43,9.43,0,0,1,547,461.57ZM498,386.6l53.75,8.09a21.79,21.79,0,0,0,3.57,8.75l-24.43,49.35a9.41,9.41,0,0,1-14.61,3,86.44,86.44,0,0,1-29.1-59.25A9.43,9.43,0,0,1,498,386.6Z"/><g class="cls-16"><path d="M463.44,382.71a110.25,110.25,0,1,1,101.68,118.2A110.37,110.37,0,0,1,463.44,382.71Zm21.69,1.63A88.49,88.49,0,1,0,580,302.72,88.6,88.6,0,0,0,485.13,384.34Z"/></g><path class="cls-17" d="M584.71,145.27a102.21,102.21,0,0,0,1-12.52l-20.87-7.18L561,104,578,90a109.38,109.38,0,0,0-12-22.44l-21.13,6.48-15.8-15.15,5.6-21.39a109,109,0,0,0-22.2-10.83L499.12,44.32l-21.67-3.14-7.92-20.66a109.13,109.13,0,0,0-25.09,4.36L444,47,424.6,57.22l-18.54-12a109.39,109.39,0,0,0-17.7,18.27L401,81.61l-9.62,19.65-22.06,1.2a111.44,111.44,0,0,0-2.63,13,119.45,119.45,0,0,0-.95,12.14l20.87,7.25,3.78,21.56-17.17,13.93a111.31,111.31,0,0,0,12,22.54l21.15-6.42,15.76,15.2-5.69,21.38a110.53,110.53,0,0,0,22.88,11.17l13.34-17.67,21.69,3,8,20.64a110.88,110.88,0,0,0,25.09-4.47l.39-22.1L527,203.38l18.56,12A109.46,109.46,0,0,0,563.27,197l-12.69-18.08,9.56-19.74L582.22,158A108.81,108.81,0,0,0,584.71,145.27ZM501.6,172.34a49.3,49.3,0,1,1,16-67.93A49.3,49.3,0,0,1,501.6,172.34Z"/><path class="cls-18" d="M537.09,92.46a72.18,72.18,0,1,0-23.46,99.34A72.27,72.27,0,0,0,537.09,92.46Zm-27.18,93.32a65.14,65.14,0,1,1,21.16-89.61A65.13,65.13,0,0,1,509.91,185.78Z"/><path class="cls-19" d="M421.42,201.09l.63.61L416.76,223l-.4.12a110.53,110.53,0,0,0,22.88,11.17l-.13-.39,13.47-17.28,21.69,3,8.23,20.3-.28.34a110.88,110.88,0,0,0,25.09-4.47l-.33-.21.72-21.89L527,203.38,545.65,215l0,.37A109.46,109.46,0,0,0,563.27,197l-.39,0-12.3-18.11,9.56-19.74L582,157.66l.23.31a108.81,108.81,0,0,0,2.49-12.7,102.21,102.21,0,0,0,1-12.52l-.28.27-5.84-2.11C529.39,182.27,468.31,197.89,421.42,201.09Z"/><path class="cls-20" d="M513.63,191.8a71.8,71.8,0,0,0,26.31-28.49q-6.84,4.4-13.75,8.18a65.08,65.08,0,0,1-61.06,23.13q-7.83,1.81-15.42,3.11A72.09,72.09,0,0,0,513.63,191.8Z"/><path class="cls-21" d="M445.53,42.41l.88-17.82s11.26-3.71,19.37-3.69C465.78,20.9,452.21,23.44,445.53,42.41Z"/><path class="cls-22" d="M539.24,912.63c2-.94,3.76-2.09,4.07-3.3s-.74-2.64-2.07-3.38c-3.8-2.1-12.54-1.07-17-1.11q-11.88-.11-23.78.25c-3.63.11-43.34,1.14-39.6,7.95,3.27,6,24.47,7.3,30.35,7.18,9.64-.19,19.34-.47,28.83-2a82.25,82.25,0,0,0,14.24-3.59A52,52,0,0,0,539.24,912.63Z"/><circle class="cls-23" cx="477.93" cy="887.22" r="32.03"/><polygon class="cls-24" points="465.59 906.29 455.25 886.07 467.59 867 490.27 868.15 500.62 888.37 488.28 907.44 465.59 906.29"/><circle class="cls-25" cx="477.93" cy="887.22" r="11.73"/><path class="cls-24" d="M527.17,786.76,561,722.27l28.13,17.21-41.73,59.64-11.13-1.74a4.16,4.16,0,0,1-2.76-1.71Z"/><path class="cls-23" d="M531.91,777q13.92,5,28.63,9.76c4.19,1.35,6.79-5.14,2.44-6.5q-15.27-4.77-29.64-9.86C529.37,769,528.08,775.62,531.91,777Z"/><path class="cls-23" d="M526.39,787.67q13,4.88,26.65,9.48c3.89,1.31,6.07-4.43,2-5.76q-14.15-4.65-27.52-9.58C523.86,780.44,522.82,786.33,526.39,787.67Z"/><path class="cls-23" d="M544.2,753.12q16.06,4.92,33.32,9.37c4.93,1.27,9.18-7.83,4-9.1Q563.44,749,546.68,744C542.07,742.67,539.79,751.77,544.2,753.12Z"/><path class="cls-23" d="M538.2,764.86q15,5.17,30.92,10c4.54,1.38,7.66-6,2.93-7.42q-16.57-4.86-32.1-10.11C535.67,755.91,534.08,763.43,538.2,764.86Z"/><polygon class="cls-26" points="545.61 798.85 576.8 744.09 581.73 749.08 547.14 798.89 545.61 798.85"/><path class="cls-27" d="M612.62,731.61c.43-11-8.14-22.94-19-29.6s-25.39-8.86-35-3.47c-14.59,8.19-14.17,30.51,9.57,45S612,748.32,612.62,731.61Z"/><path class="cls-23" d="M572.43,736.6c-23.73-14.52-25.49-34.66-11.94-41.14,8.93-4.27,23-1.4,33.91,5.26s19.85,17.9,20.11,27.81C614.9,743.54,596.17,751.13,572.43,736.6Z"/><polygon class="cls-24" points="576.62 698.17 593.57 703.79 605.46 716.85 602.01 730.44 577.08 726.06 564.64 705.81 576.62 698.17"/><path class="cls-25" d="M583.48,718.55c-6.32-3.87-8.75-9.72-5.88-12.61,2.48-2.49,8.14-1.88,12.95,1.07s7.93,7.71,6.84,11C596.12,721.92,589.81,722.42,583.48,718.55Z"/><path class="cls-24" d="M651.61,546.45l-39.8-68.16,25-14.34,39.81,68.16-6.07,12.11a5.64,5.64,0,0,1-5.39,3.1Z"/><path class="cls-23" d="M625.63,503.86Q638,492.17,649.9,480c3.33-3.42-2.51-9.69-5.85-6.26q-11.89,12.21-24.26,23.88C616.33,500.86,622.17,507.12,625.63,503.86Z"/><path class="cls-23" d="M634.2,518.8q12.36-11.67,24.27-23.89c3.33-3.41-2.51-9.68-5.85-6.26q-11.89,12.21-24.26,23.89C624.9,515.8,630.75,522.06,634.2,518.8Z"/><path class="cls-23" d="M642.77,533.74q12.36-11.67,24.27-23.88c3.33-3.42-2.51-9.69-5.84-6.27q-11.91,12.23-24.27,23.89C633.47,530.75,639.32,537,642.77,533.74Z"/><path class="cls-23" d="M651.34,548.69Q663.7,537,675.61,524.8c3.33-3.42-2.51-9.69-5.84-6.26q-11.91,12.21-24.27,23.88C642,545.69,647.89,552,651.34,548.69Z"/><polygon class="cls-28" points="671.93 541.56 669.99 545.58 628.56 478.94 638.87 471.44 671.93 541.56"/><path class="cls-27" d="M643.34,435.44c-9.75-4.46-24.9-1.17-36.48,6.15s-21,19.54-21,30.18c-.07,16.14,20.34,24,45.61,8.05S658.12,442.2,643.34,435.44Z"/><path class="cls-23" d="M627.31,473.41c-25.28,16-44.38,10.11-43.31-4.47.7-9.61,10.51-21.23,22.09-28.54s26.34-11.22,35.43-7.8C655.3,437.8,652.58,457.44,627.31,473.41Z"/><polygon class="cls-24" points="596.03 457.67 609.78 444.5 627.67 438.65 638.19 446.77 621.48 467.56 596.81 471.26 596.03 457.67"/><path class="cls-25" d="M618,459c-6.73,4.25-13.27,4.27-14.41.62-1-3.14,2.46-8,7.58-11.24s11-4.28,13.49-2.07C627.48,448.91,624.7,454.78,618,459Z"/><rect class="cls-24" x="470.99" y="401.87" width="56.92" height="21.7" rx="8.31" transform="translate(268.6 1018.11) rotate(-108.7)"/><path class="cls-23" d="M490,422.76q13.75-.24,27.52-.21c2.6,0,2.85,4.06.23,4.05q-13.75,0-27.52.22C487.64,426.86,487.39,422.81,490,422.76Z"/><path class="cls-23" d="M485.92,410.68q13.75-.26,27.52-.22c2.6,0,2.86,4.06.23,4.06q-13.75,0-27.52.21C483.55,414.78,483.3,410.72,485.92,410.68Z"/><path class="cls-23" d="M483.54,399.7q13.77-.26,27.52-.22c2.6,0,2.86,4.06.24,4.06q-13.77,0-27.52.21C481.17,403.8,480.92,399.74,483.54,399.7Z"/><path class="cls-29" d="M485.8,389.33c5.13-.72,10.26-1.38,15.41-1.95,3.8-.42,9.52-2.13,13.27-.12,3.58,1.93,5.42,7.38,7.07,10.85a125.12,125.12,0,0,1,5.91,14.83,129.46,129.46,0,0,1,3.62,13.79c.76,3.64,1.35,7.26-1.68,9.75-6.58,5.4-18.28,4.68-26.43,4.57-4.85-.07-5.6-7.83-.71-7.76,6.78.09,13.47.09,19.88-2,2.4-.77,2.1-.85,1.58-3.47-.39-2-.86-3.93-1.37-5.88q-1.35-5.13-3.14-10.14t-4-9.86a45.56,45.56,0,0,0-2.67-5.43c-1.44-2.24-1.47-2-3.73-2.11-3.33-.18-7,.72-10.31,1.1-4,.47-8,1-12,1.56C481.74,397.76,481.06,390,485.8,389.33Z"/><path class="cls-24" d="M467.9,394.12c3.62-1,7.31-1.52,10.93-2.58l1.68-.54c4.79-1.46,7.71,5.73,2.89,7.44-1.25.44-2.5.85-3.77,1.23-2.93,1.13-5.51,2.87-5.35,6.48.21,4.75,2.13,9.86,3.88,14.25a65.36,65.36,0,0,0,7.08,13.18c1.7,2.43,1.52,3,4.37,2.61,2.55-.32,5.08-.67,7.62-1a3.69,3.69,0,0,1,4.24,3.62,3.47,3.47,0,0,1-1.07,4.86c-5.66,3.8-13.36,7.54-19.7,2.47-3.25-2.6-4.52-7.25-6.1-10.91q-2.85-6.59-5.69-13.18c-2.69-6.21-8.79-15.19-7-22.24A7.87,7.87,0,0,1,467.9,394.12Z"/><path class="cls-29" d="M540.58,418.09c10.56-1.11,20.82-3,31.21-5.15,7-1.42,13.8-2.64,20.55-4.81s13.25-4.47,20-6.39c5-1.43,20.76-7.46,24-.94,2,3.95-2,8.76-4.4,11.56-3.47,4.15-7.11,8.38-10.83,12.26a187.47,187.47,0,0,1-37.56,30.25c-10.87,6.65-22.6,12.23-35,14.89-1.43.3-2.87.57-4.32.79a3.21,3.21,0,0,1-1.82-.07,3.31,3.31,0,0,1-1.45-2.19,358.62,358.62,0,0,1-10.69-42.57c-.35-1.84-.65-3.84.23-5.48C531.85,417.56,538,418.36,540.58,418.09Z"/><path class="cls-23" d="M469.57,395.14a3.29,3.29,0,0,0-2.6,4.49l13.35,38.56a3.79,3.79,0,0,0,4,2.57l16.95-2.46,12.51,36.64h0c-.4-.54-5.6-.58-7.41-1.31a32.77,32.77,0,0,0-9.48-2c-22.09-2.21-45.56-2.88-64.39,10.81-30.28,22-60.05,44.83-89.81,67.54-30.2,23-60.16,46.4-89.58,70.42l-1.76,1.44c-14.55,11.91-29,24-43.43,36q-11.27,9.38-22.6,18.68c-8.12,6.66-13.16,13.62-24.63,10-10.23-3.19-20.46-10.45-27.18-18.72a54.51,54.51,0,0,1-11-23.27c-2-9.22-5.52-20.69,4-26.72,4.16-2.65,8.26-5.28,12.24-8.2,61.17-41.57,123.42-83,183.7-126.29l12.83-9.2c15.83-11.3,42.13-31.58,57.59-43.4,30.12-23.05,33.63-40.07,51-68.05,7-11.3,13.55-22.87,19.78-34.61l22.23,65.07Z"/><path class="cls-30" d="M516.49,296.76c22.79-4.3,78.84,23.63,93.59,29.79s5.15,17.77,5.15,17.77c-2.64.4-5.28.83-7.92,1.26q-10.69,1.77-21.35,3.82-7.79,1.5-15.54,3.12c-2.59.53-5.18,1.05-7.76,1.62-2.06.45-4,1.51-6,2.14-2.27.71-4.55,1.41-6.76,2.31a43.13,43.13,0,0,0-12.18,7.15c-1.2,1.07-3.06,3.86-2.4,5.68.08.21,35.91,99.88,35.91,99.88a1.84,1.84,0,0,1-1.69,2.46l-55.75,1.18s2.58-2,2-9a101.2,101.2,0,0,0-2.51-14.25c-1.17-4.9-2.59-9.73-4.05-14.54l14.11-2c4.33-.63,6.77-5.15,5.11-9.48l-12.76-33.27a3.78,3.78,0,0,0-3.91-2.45l-16.44,2q-12.15-36.24-27.87-71.16c-1.25,2.43-2.53,4.85-3.81,7.26l-1-2.93C471.48,314,493.7,301.07,516.49,296.76Z"/><path class="cls-30" d="M509.18,437.15c1.46,4.81,2.88,9.64,4.05,14.54a101.2,101.2,0,0,1,2.51,14.25c.63,7-1.94,9-2,9L501.28,438.3Z"/><path class="cls-30" d="M495.29,391.94l-9.45,1.17L463.61,328c1.28-2.41,2.56-4.83,3.81-7.26Q483.13,355.64,495.29,391.94Z"/><path class="cls-31" d="M347.81,549.66l-1.64,1.25c-32.16,24.54-64.07,49.42-95.41,75-.62.52-1.25,1-1.88,1.54C233.39,640.14,218,653,202.63,665.78q-12,10-24.08,19.9c-8.65,7.1-14,14.51-26.23,10.7-10.9-3.4-21.8-11.14-28.95-19.94a58.27,58.27,0,0,1-11.71-24.79c-2.08-9.82-5.87-22,4.22-28.46,4.43-2.82,8.81-5.63,13-8.74C187,575,248.48,533.78,306.08,493Z"/><circle class="cls-18" cx="154.07" cy="650.58" r="16.27" transform="translate(-434.58 333.6) rotate(-48.38)"/><path class="cls-28" d="M343.63,524.09l-12.71-17.25a7.27,7.27,0,0,1,1.54-10.16c20.67-15.22,89.24-66,93.46-72.46,3.73-5.73,7.69-11.31,11.62-16.91,2.24-3.2,9.6-17.81,13.11-18.81,7.89-2.24,11.61,19.67,13.37,24.79,3.49,10.16,6.85,20.37,10.15,30.6a5.09,5.09,0,0,1-4.59,6.65c-7.4.39-19.46,1.95-28.41,7.73-11.54,7.46-68.56,52.47-87.18,67.21A7.27,7.27,0,0,1,343.63,524.09Z"/><path class="cls-23" d="M144.22,637a17.3,17.3,0,1,1-3.67,24.2A17.32,17.32,0,0,1,144.22,637Zm1.08,1.47a15.48,15.48,0,1,0,21.64,3.28A15.5,15.5,0,0,0,145.3,638.46Z"/><polygon class="cls-3" points="257.07 557.54 266.07 564.8 276.24 563.67 277.58 565.67 275.16 567.39 283.88 568.83 288.6 574.17 286.4 583.29 278.7 589.33 269.71 586.18 262.34 577.67 249.58 568.26 257.07 557.54"/><path class="cls-4" d="M266.63,555.6l-81.4-81c-2.81-2.79-4.56-8.8-6.36-12.27L166,437.61c-2.92-5.65-6.67-17.85-12.3-21.24-9.18-5.53-22.28,5.24-26.77,12.54-13.79,22.43,1.45,44.79,9.87,66.34l10.42,17,104.76,66Z"/><path class="cls-7" d="M114.58,326.55c.35,10,4.51,19.61,10.18,27.73a34.08,34.08,0,0,0,8.27-3.67c11.91-6.67,23.65-13.94,33.6-23.48a94.62,94.62,0,0,0,22-33.17c-8.48-6.53-21.69-9.75-32.62-9.1C136.07,286.06,113.81,304.54,114.58,326.55Z"/><path class="cls-7" d="M201.36,268.67c3.73-1.44,8.3-2.51,11.43,0,3.71,2.94,2.87,8.75,1.2,13.18a65.51,65.51,0,0,1-31.21,34.79c-6.16,3.14-17.79,5.76-20.58-3.35-1.5-4.86,2.07-14,4.26-18.63C172.44,282.12,189.12,273.4,201.36,268.67Z"/><path class="cls-7" d="M825.77,502.71l-9.95.05,1-16c.53-8,1.06-16,2.66-23.86a89.47,89.47,0,0,1,15.26-34.66,11.82,11.82,0,0,0-15.44-1.49c-3.32,2.54-5,6.66-6.35,10.61a196.35,196.35,0,0,0-9.93,45.3c-.58,5.91-2,13.73-1.43,20.18l-33.88.18q.66-9.9,1.31-19.79c.52-8,1-16,2.65-23.86a89,89,0,0,1,7.84-22.51c3.39-6.69,6.86-15.05,13.29-18.9a43.25,43.25,0,0,0-16.49,2.53c-6.17,2.22-9.11,7.41-11.17,13.34a196.35,196.35,0,0,0-9.93,45.3c-.69,7-2.57,16.7-.9,23.6,0,.13.06.24.08.36l-8.68,0L717.55,616H837.21Z"/><polygon class="cls-3" points="646.15 511.87 627.24 503.74 630.48 495.6 644.7 498.33 644.42 493.79 659.73 502.7 657.52 511.6 646.15 511.87"/><path class="cls-4" d="M833.52,455.05a18.14,18.14,0,0,0-5-1.79c-7.76-1.66-16,.44-23,4.21-11.09,6-20.37,15.44-30.7,22.62L739.43,504.7,655.58,498l-3.47,17.88,99.64,27.45c15.16-11.65,29.93-23.1,45.71-33.72,14.15-9.52,31.34-16.87,40.32-32.06C842.85,468.93,841.43,459.36,833.52,455.05Z"/><path class="cls-32" d="M788.13,363.07c-2.79-4.41-4.89-9.63-8-13.27-3.79-4.41-10.27-6.71-12.16-12.21-2.29-6.71,1.81-14.37,8-17.12a26,26,0,0,1,12-1.75,17.89,17.89,0,0,1,5.94,1.13,11.19,11.19,0,0,1,6.67,8.62c.38,2.7-.24,5.57.82,8.08,3.51,8.37,13.48,9.52,21,11.48,7.73,2,14.9,2.33,21.57,7.4,10.33,7.88,14,22.85,9.82,35.15s-15.4,21.56-28,24.85c-7.06,1.86-1.15-3.49.62-5.2a32.09,32.09,0,0,0,8.19-12.3c2.09-6.05,1.45-13.34-2.88-18.06-3.82-4.17-9.68-5.66-15.21-6.84-3.48-.74-7.31-2-10.89-1.93-2.5,0-4.56.67-7.11.18C793.71,370.36,790.64,367,788.13,363.07Z"/><path class="cls-7" d="M858.11,421.78c2.38,2.36,5.5,4.73,8.76,4a7,7,0,0,0,4.61-4.64,16.89,16.89,0,0,0,.54-6.76,61.6,61.6,0,0,0-16.83-37.66c-1.86-1.93-4.22-3.88-6.88-3.55-3.71.44-6.19,5.45-7.71,8.43-1.18,2.33,3.35,5.39,4.43,7.84a14.44,14.44,0,0,1,.81,9.56c-.74,2.68-1,5,.37,7.62C849,412.17,853.69,417.39,858.11,421.78Z"/><path class="cls-7" d="M820.87,357.12a114.68,114.68,0,0,1,11.87,13.15c6.84,9.14,10.2,19.51,15.37,29.5,2.76,5.33,6.15,1.42,9.48-2A32.31,32.31,0,0,0,863.54,361c-3-6.16-7.83-11.19-12.59-16.12-6.3-6.5-16.75-9.53-25.79-9.35-4.21.08-15.56,1.68-17.35,6.5C806.19,346.42,818,354.33,820.87,357.12Z"/></g></g></g></svg>