<svg xmlns="http://www.w3.org/2000/svg" xmlns:xlink="http://www.w3.org/1999/xlink" viewBox="0 0 2776.61 2785.04"><defs><style>.cls-1{fill:none;}.cls-2{isolation:isolate;}.cls-3{fill:url(#linear-gradient);}.cls-4{fill:#91b3fa;}.cls-12,.cls-13,.cls-27,.cls-5{fill:#fff;}.cls-5{opacity:0.5;}.cls-6{fill:#bdd0fb;}.cls-7{fill:#7d97f4;}.cls-8{fill:url(#linear-gradient-2);}.cls-9{fill:url(#linear-gradient-3);}.cls-10{fill:url(#linear-gradient-4);}.cls-11{clip-path:url(#clip-path);}.cls-12{mix-blend-mode:overlay;opacity:0.21;}.cls-14{fill:url(#linear-gradient-5);}.cls-15{fill:url(#linear-gradient-6);}.cls-16{fill:url(#linear-gradient-7);}.cls-17{fill:url(#linear-gradient-8);}.cls-18{fill:url(#linear-gradient-9);}.cls-19{fill:url(#linear-gradient-10);}.cls-20{fill:url(#linear-gradient-11);}.cls-21{fill:url(#linear-gradient-12);}.cls-22{fill:url(#linear-gradient-13);}.cls-23{fill:url(#linear-gradient-14);}.cls-24{fill:url(#linear-gradient-15);}.cls-25{fill:url(#linear-gradient-16);}.cls-26{fill:url(#linear-gradient-17);}.cls-27{opacity:0.7;}.cls-28{fill:url(#linear-gradient-18);}.cls-29{fill:url(#linear-gradient-19);}.cls-30{fill:url(#linear-gradient-20);}.cls-31{fill:url(#linear-gradient-21);}.cls-32{fill:url(#linear-gradient-22);}.cls-33{fill:url(#linear-gradient-23);}.cls-34{fill:url(#linear-gradient-24);}.cls-35{fill:url(#linear-gradient-25);}.cls-36{fill:url(#linear-gradient-26);}.cls-37{fill:url(#linear-gradient-27);}.cls-38{fill:url(#linear-gradient-28);}.cls-39{fill:url(#linear-gradient-29);}.cls-40{fill:url(#linear-gradient-30);}.cls-41{fill:url(#linear-gradient-31);}.cls-42{fill:url(#linear-gradient-32);}.cls-43{fill:url(#linear-gradient-33);}.cls-44{fill:url(#linear-gradient-34);}.cls-45{fill:url(#linear-gradient-35);}.cls-46{fill:url(#linear-gradient-36);}.cls-47{fill:url(#linear-gradient-37);}.cls-48{opacity:0.34;fill:url(#linear-gradient-38);}</style><linearGradient id="linear-gradient" x1="3128.54" y1="3597.89" x2="655.59" y2="526.64" gradientUnits="userSpaceOnUse"><stop offset="0" stop-color="#dae3fe"/><stop offset="1" stop-color="#e9effd"/></linearGradient><linearGradient id="linear-gradient-2" x1="718.31" y1="-385.21" x2="2438.4" y2="3781.67" gradientUnits="userSpaceOnUse"><stop offset="0" stop-color="#09005d"/><stop offset="1" stop-color="#1a0f91"/></linearGradient><linearGradient id="linear-gradient-3" x1="325.28" y1="329.19" x2="2116.77" y2="1990.21" gradientUnits="userSpaceOnUse"><stop offset="0" stop-color="#4f52ff"/><stop offset="1" stop-color="#4042e2"/></linearGradient><linearGradient id="linear-gradient-4" x1="1144.52" y1="-553.59" x2="2870.17" y2="3626.77" xlink:href="#linear-gradient-2"/><clipPath id="clip-path"><rect class="cls-1" x="768.57" y="207.39" width="1339.65" height="2322.51" rx="29.25"/></clipPath><linearGradient id="linear-gradient-5" x1="839.78" y1="653.94" x2="936.68" y2="1031.52" xlink:href="#linear-gradient-3"/><linearGradient id="linear-gradient-6" x1="1319.48" y1="957.65" x2="1339.66" y2="525.32" gradientTransform="matrix(0.74, -0.67, 0.67, 0.74, -695.36, 971.7)" xlink:href="#linear-gradient-3"/><linearGradient id="linear-gradient-7" x1="2439.81" y1="-4937.43" x2="2419.77" y2="-4835.52" gradientTransform="matrix(0.74, -0.67, 0.67, 0.74, -695.36, 971.7)" xlink:href="#linear-gradient-3"/><linearGradient id="linear-gradient-8" x1="2498.49" y1="-4925.88" x2="2478.44" y2="-4823.97" gradientTransform="matrix(0.74, -0.67, 0.67, 0.74, -695.36, 971.7)" xlink:href="#linear-gradient-3"/><linearGradient id="linear-gradient-9" x1="626.51" y1="695.51" x2="713.38" y2="978.41" xlink:href="#linear-gradient-2"/><linearGradient id="linear-gradient-10" x1="850.47" y1="505.31" x2="846.01" y2="634.51" xlink:href="#linear-gradient-2"/><linearGradient id="linear-gradient-11" x1="6548.45" y1="-1213.03" x2="6481.63" y2="-1081.6" gradientTransform="matrix(-0.68, -0.73, -0.73, 0.68, 6123.66, 1325.44)" xlink:href="#linear-gradient-2"/><linearGradient id="linear-gradient-12" x1="6170.9" y1="-656.65" x2="6104.07" y2="-525.23" gradientTransform="matrix(-0.68, -0.73, -0.91, 0.85, 6228.5, 1227.74)" xlink:href="#linear-gradient-2"/><linearGradient id="linear-gradient-13" x1="2185.95" y1="30.15" x2="695.7" y2="2482.7" gradientUnits="userSpaceOnUse"><stop offset="0" stop-color="#ff928e"/><stop offset="1" stop-color="#fe7062"/></linearGradient><linearGradient id="linear-gradient-14" x1="1974.56" y1="-98.29" x2="484.32" y2="2354.26" xlink:href="#linear-gradient-13"/><linearGradient id="linear-gradient-15" x1="1214.31" y1="1880.94" x2="699.74" y2="2796.47" xlink:href="#linear-gradient-13"/><linearGradient id="linear-gradient-16" x1="1472" y1="2025.77" x2="957.43" y2="2941.3" xlink:href="#linear-gradient-13"/><linearGradient id="linear-gradient-17" x1="1469.41" y1="940.51" x2="1696.62" y2="1688.98" xlink:href="#linear-gradient-13"/><linearGradient id="linear-gradient-18" x1="1004.61" y1="1583.04" x2="1091.49" y2="1930.55" xlink:href="#linear-gradient-13"/><linearGradient id="linear-gradient-19" x1="7635.85" y1="1885.7" x2="7797.79" y2="1885.7" gradientTransform="matrix(-1, 0, 0, 1, 10335.62, 0)" gradientUnits="userSpaceOnUse"><stop offset="0" stop-color="#febbba"/><stop offset="1" stop-color="#ff928e"/></linearGradient><linearGradient id="linear-gradient-20" x1="4865.35" y1="4767.83" x2="5137.67" y2="4385.24" gradientTransform="matrix(-1, 0, 0, 1, 9567.85, 0)" xlink:href="#linear-gradient-13"/><linearGradient id="linear-gradient-21" x1="2520.1" y1="1238.51" x2="2468.31" y2="1432.31" gradientTransform="matrix(1, 0, 0, 1, 0, 0)" xlink:href="#linear-gradient-19"/><linearGradient id="linear-gradient-22" x1="5985.91" y1="4379.99" x2="4495.66" y2="6832.54" gradientTransform="matrix(-1, 0, 0, 1, 10335.62, 0)" gradientUnits="userSpaceOnUse"><stop offset="0" stop-color="#e1473d"/><stop offset="1" stop-color="#e9605a"/></linearGradient><linearGradient id="linear-gradient-23" x1="4988.2" y1="4855.26" x2="5260.52" y2="4472.67" gradientTransform="matrix(-1, 0, 0, 1, 9567.85, 0)" xlink:href="#linear-gradient-13"/><linearGradient id="linear-gradient-24" x1="7563.56" y1="1549.07" x2="7669.86" y2="1549.07" gradientTransform="matrix(-1, 0, 0, 1, 9567.85, 0)" xlink:href="#linear-gradient-19"/><linearGradient id="linear-gradient-25" x1="1886.44" y1="5081.13" x2="1837.39" y2="4919.36" gradientTransform="matrix(-0.75, -0.67, -0.67, 0.75, 7195.35, -1229.52)" xlink:href="#linear-gradient-19"/><linearGradient id="linear-gradient-26" x1="1837.67" y1="4800.06" x2="1878.69" y2="5034.07" gradientTransform="matrix(-0.75, -0.67, -0.67, 0.75, 7195.35, -1229.52)" xlink:href="#linear-gradient-2"/><linearGradient id="linear-gradient-27" x1="1836.3" y1="5080.38" x2="1792.17" y2="4934.83" gradientTransform="matrix(-0.75, -0.67, -0.67, 0.75, 7195.35, -1229.52)" xlink:href="#linear-gradient-19"/><linearGradient id="linear-gradient-28" x1="1896.27" y1="1527.5" x2="1968.92" y2="1527.5" gradientTransform="matrix(1, 0, 0, 1, 0, 0)" xlink:href="#linear-gradient-19"/><linearGradient id="linear-gradient-29" x1="7788.66" y1="2718.88" x2="7910.09" y2="2718.88" gradientTransform="matrix(-1, 0, 0, 1, 10335.62, 0)" xlink:href="#linear-gradient-2"/><linearGradient id="linear-gradient-30" x1="7983.59" y1="2722.11" x2="8158.4" y2="2722.11" gradientTransform="matrix(-1, 0, 0, 1, 10335.62, 0)" xlink:href="#linear-gradient-2"/><linearGradient id="linear-gradient-31" x1="2599.89" y1="1394.43" x2="2372.67" y2="2811.16" xlink:href="#linear-gradient-2"/><linearGradient id="linear-gradient-32" x1="7880.94" y1="1985.68" x2="7818.73" y2="2096.39" gradientTransform="matrix(-1, 0, 0, 1, 10335.62, 0)" xlink:href="#linear-gradient-2"/><linearGradient id="linear-gradient-33" x1="2541.63" y1="1384.93" x2="2314.36" y2="2802.03" xlink:href="#linear-gradient-2"/><linearGradient id="linear-gradient-34" x1="2400.67" y1="1361.75" x2="2167.96" y2="2812.75" xlink:href="#linear-gradient-2"/><linearGradient id="linear-gradient-35" x1="2558.85" y1="1385.3" x2="2308.96" y2="2943.48" xlink:href="#linear-gradient-2"/><linearGradient id="linear-gradient-36" x1="2425.02" y1="1492.66" x2="2398.29" y2="1568.4" gradientTransform="translate(1839.94 -1210.89) rotate(45)" xlink:href="#linear-gradient-3"/><linearGradient id="linear-gradient-37" x1="2548.65" y1="1494.31" x2="2521.92" y2="1570.05" gradientTransform="translate(1877.32 -1297.82) rotate(45)" xlink:href="#linear-gradient-3"/><linearGradient id="linear-gradient-38" x1="2679.01" y1="198.45" x2="2590.52" y2="780.97" gradientUnits="userSpaceOnUse"><stop offset="0" stop-color="#53d8ff"/><stop offset="1" stop-color="#3840f7"/></linearGradient></defs><g class="cls-2"><g id="Layer_2" data-name="Layer 2"><g id="Illustration"><path class="cls-3" d="M2450.14,2385.37c-56.91,59.73-110.76,98.24-153.3,128.68-500.08,357.71-1091.8,253.44-1217.56,228-185.71-37.6-544.68-110.28-804.2-414.55-392.64-460.32-331.5-1185.55-26.94-1664.29,55.7-87.56,350-573.59,948.07-651.53,362-47.17,783.9,48,1089.45,303.17C2927.05,850.53,2881.39,1932.75,2450.14,2385.37Z"/><path class="cls-4" d="M1350.05,2023.35S921.2,739.22,212.75,81.33C165.12,37.11,87.46,62.79,76,126.76-.76,554.51-106.17,1840.53,1350.05,2023.35Z"/><path class="cls-5" d="M1211.73,1950.51a3.58,3.58,0,0,1-4.14,5.82C1066.2,1869.7,510.32,1431.55,234.35,483.54c-.88-3,3.57-4.64,4.72-1.68C323.51,699.77,660.69,1501,1211.73,1950.51Z"/><path class="cls-6" d="M1498.13,2399.27s-890-727-1397.82-1124.26c-40.81-31.92-98.59,21.7-89,72.61C75.41,1688,284.41,2698.61,1498.13,2399.27Z"/><path class="cls-5" d="M1311.46,2426.34c3.38,1.19,2,5.89-1.53,5.49-174.24-19.68-718.27-177.84-1128.4-840.6-1.33-2.15,1.42-4.44,3.08-2.53C306.92,1729.19,776.63,2238.52,1311.46,2426.34Z"/><path class="cls-7" d="M2088.06,2370.16s-531.38-647.79-51.92-1242.57c299.62-371.69,376.37-620.47,391.79-754.8,5.06-44.05,57.51-60.83,85.45-27.56C2722,593.64,3148.49,1328,2088.06,2370.16Z"/><path class="cls-5" d="M2556.2,555.22a3.14,3.14,0,0,1,6.27-.46c20.09,151.56,32.93,804.62-456.21,1557-1.58,2.41-5.14.17-3.77-2.38C2203.2,1921.45,2558.61,1211.52,2556.2,555.22Z"/><rect class="cls-8" x="685.23" y="58.8" width="1508.15" height="2605.18" rx="29.25"/><rect class="cls-9" x="754.19" y="139.77" width="1370.16" height="2444.56" rx="29.25"/><path class="cls-10" d="M1028.64,136.23h830.19a0,0,0,0,1,0,0v67.82a11.15,11.15,0,0,1-11.15,11.15H1039.79a11.15,11.15,0,0,1-11.15-11.15V136.23A0,0,0,0,1,1028.64,136.23Z"/><rect class="cls-7" x="1200.34" y="146.85" width="506.1" height="28.87" rx="4.08"/><g class="cls-11"><polygon class="cls-12" points="2464.68 886.75 594.44 435.45 632.58 286.21 2502.82 737.51 2464.68 886.75"/><polygon class="cls-12" points="2307.55 2286.04 437.31 1834.74 555.6 1371.89 2425.84 1823.19 2307.55 2286.04"/><polygon class="cls-12" points="2409.59 1747.86 539.35 1296.56 570.07 1176.37 2440.31 1627.66 2409.59 1747.86"/><polygon class="cls-12" points="2416.64 1140.94 546.4 689.64 564.28 619.67 2434.52 1070.97 2416.64 1140.94"/></g><circle class="cls-7" cx="710.71" cy="532.85" r="519.04"/><circle class="cls-13" cx="713.45" cy="535.28" r="467.21"/><path class="cls-4" d="M518.93,245.06l-58.18-28.49a14.45,14.45,0,0,0-16,2.24l-6.32,5.69-10.22,9.21-6.54,5.89a14.45,14.45,0,0,0-3.9,15.7L440,316.12a28.49,28.49,0,0,0,20.67,18.3L500,343,755.3,626.5,770,613.25l10.22-9.2,13.89-12.51L538.81,308.06l-4.14-40.26A28.58,28.58,0,0,0,518.93,245.06Z"/><path class="cls-7" d="M515,248.49l-52.73-26c-4.77-2.34-10.8-1.9-14.75,1.66l-5.69,5.12-9.21,8.3-5.89,5.3c-3.95,3.56-5,9.51-3.19,14.5l20.21,55a26,26,0,0,0,18.79,16.49l35.59,7.75L728.32,592.21l13.07-11.77,9.2-8.29,14.39-13L534.76,303.56l-4.68-35.43C529.15,259.33,522.91,252.39,515,248.49Z"/><path class="cls-14" d="M964,687.36l-181.5-162L690.8,608.2,830.47,801.15a122.24,122.24,0,0,0,51.87,41.11L938,866c9.43,4,20.92,2.81,28.51-4l38.11-34.32c6.9-6.21,9.39-16.3,7.61-25.4l-9.37-46.73A123.7,123.7,0,0,0,964,687.36Z"/><path class="cls-15" d="M791.52,514.94a15.12,15.12,0,0,1-1.12,21.36L698.59,619a15.13,15.13,0,0,1-21.37-1.12l-1.11-1.24a15.14,15.14,0,0,1,1.11-21.37L769,512.58a15.12,15.12,0,0,1,21.36,1.12Z"/><path class="cls-16" d="M927.9,805.15a12.93,12.93,0,0,1-.95,18.26l-.19.17a12.94,12.94,0,0,1-18.27-1l-173-192.12a12.92,12.92,0,0,1,1-18.26l.19-.18a12.92,12.92,0,0,1,18.26,1Z"/><path class="cls-17" d="M973.19,764.36a12.94,12.94,0,0,1-1,18.27l-.19.17a12.93,12.93,0,0,1-18.26-1l-173-192.12a12.93,12.93,0,0,1,1-18.26l.2-.17a12.93,12.93,0,0,1,18.26,1Z"/><path class="cls-18" d="M395.32,678l-12.24,11.41c-21,19.59-27.34,47-14.14,61.12l15.7,16.84c13.21,14.17,40.95,9.78,62-9.81l12.25-11.41c.81-.76,1.6-1.53,2.38-2.32L809.66,389.78l-34.21-36.7L397.8,675.78C397,676.5,396.13,677.24,395.32,678Zm16.86,16.15c15.82-14.74,35.75-19.07,44.51-9.67s3,29-12.78,43.72-35.75,19.08-44.51,9.67S396.36,708.9,412.18,694.15Z"/><path class="cls-19" d="M882.27,218.94l-71,66.23a22.32,22.32,0,0,0-7,18.4l3.33,35.29a22.29,22.29,0,0,0,18.55,19.9l35,5.8a22.3,22.3,0,0,0,18.85-5.69L951,292.65c10.72-10,28.44-2.82,28.83,11.83a128.18,128.18,0,0,1-41.23,97.17c-51.1,47.63-123.39,40.54-169.2-8.61s-47.8-121.75,3.3-169.38a128.21,128.21,0,0,1,99.82-34.31C887.08,190.77,893,209,882.27,218.94Z"/><path class="cls-20" d="M888.52,225.64l-71.06,66.23a22.27,22.27,0,0,0-7,18.39l3.32,35.3a22.3,22.3,0,0,0,18.55,19.9l35,5.8a22.29,22.29,0,0,0,18.85-5.69l71.05-66.23c10.72-10,28.44-2.81,28.84,11.84a128.26,128.26,0,0,1-41.24,97.17c-51.1,47.62-123.39,40.54-169.2-8.61s-47.8-121.76,3.3-169.38a128.18,128.18,0,0,1,99.83-34.31C893.32,197.47,899.23,215.65,888.52,225.64Z"/><path class="cls-21" d="M400.3,683.34l-12.24,11.41c-21,19.59-27.35,47-14.14,61.12l15.7,16.84c13.21,14.17,40.95,9.78,62-9.81l12.25-11.41c.81-.76,1.6-1.53,2.38-2.32l348.43-354-34.21-36.7L402.78,681.12C401.94,681.84,401.11,682.58,400.3,683.34Zm16.86,16.16c15.82-14.75,35.75-19.08,44.51-9.68s3,29-12.78,43.72-35.75,19.08-44.51,9.68S401.34,714.24,417.16,699.5Z"/><path class="cls-22" d="M1543.77,620.7c137.49,24.11,279.59,30.47,417,2.19a840.39,840.39,0,0,0,180.63-59.1c89.41-41,195-87.95,208.44-198.74,7.52-61.91-36.95-92.18-91.35-102.85-18.36-3.61-37-6-55.25-.67-17.15,5-14.18,11.65-12.9,28q2,25.46,4,50.91c2.31,29.69-42,43.78-63.2,56.1-50.21,29.14-103.29,53.19-158.73,70.51-132.52,41.41-273.53,42.92-410.42,27.13-45.18-5.21-81.13,37.26-68.71,81A64,64,0,0,0,1543.77,620.7Z"/><path class="cls-23" d="M1655.7,756.8,1372.93,558a13.92,13.92,0,0,1,1.76-23.83L1671.88,385a16.14,16.14,0,0,1,23.36,15.24c-35.76,123.9-39.79,238.68-17.69,346A13.88,13.88,0,0,1,1655.7,756.8Z"/><path class="cls-24" d="M1389.5,2372.26c-128.79,53.8-266,91.31-406.23,94a840.41,840.41,0,0,1-189.22-17.85c-96.24-20.28-209.57-42.83-247.1-147.93-21-58.73,15.73-98.06,66.44-120.45,23.77-10.5,49.88-19.7,75.29-14.28-7.94,23.69-16.28,70.51,2.52,90.18,13.41,14,57.38,21.2,76,27,55.4,17.37,112.48,29.13,170.38,33.81,138.38,11.19,276.25-18.4,406.31-63.95,42.92-15,87.34,18.46,84.87,63.87A64,64,0,0,1,1389.5,2372.26Z"/><path class="cls-25" d="M1301.45,2529.13l232-256.2a13.92,13.92,0,0,0-7-22.86L1203.75,2170a16.14,16.14,0,0,0-19.43,20c62.18,113,91.4,224,93.47,333.55A13.88,13.88,0,0,0,1301.45,2529.13Z"/><path class="cls-13" d="M1915.71,982.19a3.12,3.12,0,0,1-2.33-1q-4.1-4.62-8.29-9.11a3.1,3.1,0,1,1,4.53-4.24q4.26,4.55,8.41,9.23a3.11,3.11,0,0,1-2.32,5.16Z"/><path class="cls-13" d="M1573.18,1743.75q-5.34,0-10.67-.12a3.11,3.11,0,0,1,.07-6.21h.07c8.33.2,16.74.16,25.11-.1a3.1,3.1,0,1,1,.2,6.19C1583.05,1743.67,1578.08,1743.75,1573.18,1743.75Zm55.62-3.41a3.11,3.11,0,0,1-.38-6.19c8.27-1,16.62-2.28,24.82-3.76a3.1,3.1,0,0,1,1.1,6.11c-8.32,1.49-16.78,2.78-25.16,3.81Zm65-12.9a3.1,3.1,0,0,1-.82-6.09c8-2.2,16.08-4.66,24-7.32a3.1,3.1,0,0,1,2,5.88c-8,2.7-16.23,5.19-24.35,7.42A2.89,2.89,0,0,1,1693.83,1727.44Zm62.5-22.13a3.1,3.1,0,0,1-1.24-5.94c7.65-3.35,15.3-6.94,22.72-10.67a3.1,3.1,0,0,1,2.78,5.54c-7.51,3.78-15.26,7.42-23,10.81A3,3,0,0,1,1756.33,1705.31Zm58.68-30.82a3.1,3.1,0,0,1-1.64-5.73c7.09-4.4,14.14-9.06,21-13.83a3.1,3.1,0,0,1,3.56,5.08c-6.91,4.84-14.05,9.56-21.23,14A3.16,3.16,0,0,1,1815,1674.49Zm53.61-39a3.1,3.1,0,0,1-2-5.47c6.37-5.39,12.66-11,18.69-16.71a3.1,3.1,0,1,1,4.26,4.51c-6.11,5.78-12.49,11.48-19,16.94A3.09,3.09,0,0,1,1868.62,1635.52ZM1916,1589.2a3.11,3.11,0,0,1-2.32-5.16c5.51-6.25,10.92-12.73,16.08-19.26a3.1,3.1,0,0,1,4.87,3.85c-5.23,6.62-10.71,13.18-16.3,19.52A3.11,3.11,0,0,1,1916,1589.2Zm40.14-52.72a3.1,3.1,0,0,1-2.59-4.8c4.54-7,9-14.16,13.13-21.38a3.1,3.1,0,0,1,5.38,3.1c-4.23,7.32-8.71,14.61-13.32,21.67A3.07,3.07,0,0,1,1956.1,1536.48Zm32.14-58a3.08,3.08,0,0,1-1.31-.29,3.11,3.11,0,0,1-1.51-4.12c3.52-7.59,6.86-15.35,9.93-23.06a3.11,3.11,0,0,1,5.77,2.3c-3.12,7.82-6.5,15.68-10.06,23.37A3.12,3.12,0,0,1,1988.24,1478.52Zm23.48-62a3.13,3.13,0,0,1-3-4c2.38-8,4.58-16.14,6.51-24.24a3.11,3.11,0,0,1,6,1.45c-2,8.21-4.19,16.47-6.61,24.57A3.11,3.11,0,0,1,2011.72,1416.53Zm14.33-64.74-.45,0a3.1,3.1,0,0,1-2.62-3.52c1.21-8.24,2.2-16.64,3-24.94a3.05,3.05,0,0,1,3.37-2.81,3.1,3.1,0,0,1,2.81,3.37c-.76,8.42-1.77,16.92-3,25.28A3.11,3.11,0,0,1,2026.05,1351.79Zm4.82-66.13a3.1,3.1,0,0,1-3.1-3.11c0-8.37-.24-16.81-.7-25.08a3.09,3.09,0,0,1,2.92-3.27,3.14,3.14,0,0,1,3.27,2.92c.47,8.39.71,17,.71,25.43A3.1,3.1,0,0,1,2030.87,1285.66Zm-4.84-66.12a3.1,3.1,0,0,1-3.06-2.65c-1.22-8.26-2.68-16.58-4.35-24.73a3.1,3.1,0,0,1,6.08-1.24c1.69,8.26,3.17,16.69,4.41,25.06a3.11,3.11,0,0,1-2.62,3.52A2.38,2.38,0,0,1,2026,1219.54Zm-14.39-64.72a3.11,3.11,0,0,1-3-2.21c-2.41-8-5.05-16-7.87-23.84a3.1,3.1,0,0,1,5.83-2.11c2.86,7.92,5.54,16,8,24.16a3.09,3.09,0,0,1-3,4Zm-23.55-62a3.1,3.1,0,0,1-2.82-1.8c-3.51-7.56-7.27-15.12-11.19-22.47a3.1,3.1,0,0,1,5.48-2.92c4,7.45,7.78,15.11,11.34,22.78a3.11,3.11,0,0,1-1.51,4.12A3,3,0,0,1,1988.09,1092.85Zm-32.17-58a3.09,3.09,0,0,1-2.6-1.41c-4.54-7-9.36-13.88-14.31-20.62a3.1,3.1,0,1,1,5-3.68c5,6.83,9.9,13.86,14.5,20.91a3.09,3.09,0,0,1-.9,4.29A3,3,0,0,1,1955.92,1034.88Z"/><path class="cls-13" d="M1521.36,1740.8l-.36,0c-4.14-.48-8.27-1-12.38-1.59a3.1,3.1,0,1,1,.87-6.14q6.09.85,12.22,1.56a3.11,3.11,0,0,1-.35,6.19Z"/><path class="cls-13" d="M1213.36,1569.31a3.08,3.08,0,0,1-2.44-1.18q-3.86-4.91-7.6-9.92a3.11,3.11,0,1,1,5-3.71q3.69,4.95,7.49,9.79a3.1,3.1,0,0,1-2.43,5Z"/><path class="cls-13" d="M1183.16,1526a3.09,3.09,0,0,1-2.64-1.47c-4.33-7-8.55-14.35-12.53-21.69a3.11,3.11,0,1,1,5.46-3c3.93,7.25,8.08,14.45,12.35,21.4a3.09,3.09,0,0,1-1,4.26A3,3,0,0,1,1183.16,1526ZM1153,1468.13a3.08,3.08,0,0,1-2.84-1.87q-1.1-2.51-2.15-5c-2.51-6-4.93-12.08-7.21-18.2a3.11,3.11,0,0,1,5.82-2.17c2.25,6,4.64,12.08,7.11,18q1,2.49,2.12,5a3.1,3.1,0,0,1-1.61,4.08A3,3,0,0,1,1153,1468.13Zm-21.7-61.54a3.1,3.1,0,0,1-3-2.28c-2.21-8-4.22-16.22-6-24.32a3.1,3.1,0,0,1,6.06-1.32c1.73,8,3.72,16.07,5.89,24a3.1,3.1,0,0,1-2.17,3.82A3.3,3.3,0,0,1,1131.34,1406.59Zm-12.75-64a3.1,3.1,0,0,1-3.07-2.71c-1-8.27-1.86-16.65-2.44-24.93a3.11,3.11,0,0,1,2.88-3.31,3.17,3.17,0,0,1,3.32,2.88c.57,8.16,1.37,16.43,2.39,24.59a3.09,3.09,0,0,1-2.69,3.46A2.55,2.55,0,0,1,1118.59,1342.59Zm-3.44-65.16h-.06a3.11,3.11,0,0,1-3-3.16c.16-8.31.55-16.74,1.17-25a3.1,3.1,0,1,1,6.18.46c-.6,8.18-1,16.48-1.14,24.68A3.11,3.11,0,0,1,1115.15,1277.43Zm5.9-65a2.83,2.83,0,0,1-.5,0,3.09,3.09,0,0,1-2.56-3.56c1.33-8.2,2.92-16.48,4.7-24.6a3.1,3.1,0,0,1,6.06,1.33c-1.76,8-3.32,16.18-4.64,24.27A3.11,3.11,0,0,1,1121.05,1212.44Zm15.07-63.48a3.06,3.06,0,0,1-.93-.15,3.11,3.11,0,0,1-2-3.89c2.49-7.92,5.23-15.88,8.15-23.67a3.1,3.1,0,0,1,5.81,2.17c-2.88,7.69-5.58,15.55-8,23.36A3.1,3.1,0,0,1,1136.12,1149Zm23.9-60.71a3,3,0,0,1-1.34-.3,3.11,3.11,0,0,1-1.46-4.14c3.6-7.53,7.44-15,11.41-22.28a3.1,3.1,0,1,1,5.44,3c-3.91,7.15-7.7,14.55-11.25,22A3.1,3.1,0,0,1,1160,1088.25Zm32.23-56.7a3.1,3.1,0,0,1-2.57-4.82c4.6-6.92,9.46-13.8,14.44-20.44a3.1,3.1,0,1,1,5,3.72c-4.9,6.55-9.69,13.34-14.24,20.15A3.1,3.1,0,0,1,1192.25,1031.55Zm40-51.54a3.1,3.1,0,0,1-2.31-5.18c5.53-6.17,11.32-12.28,17.2-18.16a3.1,3.1,0,0,1,4.39,4.38c-5.81,5.81-11.51,11.84-17,17.93A3.1,3.1,0,0,1,1232.2,980Zm46.87-45.3a3.1,3.1,0,0,1-2-5.48c6.38-5.34,13-10.56,19.62-15.52a3.1,3.1,0,1,1,3.71,5c-6.54,4.89-13.05,10-19.35,15.3A3.06,3.06,0,0,1,1279.07,934.71ZM1332,896.57a3.1,3.1,0,0,1-1.63-5.74c7.06-4.36,14.35-8.59,21.65-12.57a3.1,3.1,0,0,1,3,5.45c-7.21,3.93-14.39,8.1-21.37,12.4A3.09,3.09,0,0,1,1332,896.57Zm57.78-30.23a3.11,3.11,0,0,1-1.24-6c2-.86,4-1.72,6-2.56,5.7-2.4,11.5-4.7,17.23-6.84a3.1,3.1,0,1,1,2.17,5.81c-5.65,2.12-11.37,4.39-17,6.75q-3,1.25-5.92,2.53A3,3,0,0,1,1389.74,866.34Zm61.49-21.84a3.1,3.1,0,0,1-.82-6.09c8-2.23,16.21-4.26,24.3-6a3.1,3.1,0,1,1,1.33,6.06c-8,1.75-16,3.75-24,5.95A2.91,2.91,0,0,1,1451.23,844.5Zm64-12.89a3.1,3.1,0,0,1-.38-6.18c8.22-1,16.6-1.89,24.91-2.49a3.07,3.07,0,0,1,3.32,2.87,3.11,3.11,0,0,1-2.87,3.32c-8.19.59-16.46,1.42-24.58,2.46Zm90-2.5H1605c-8.18-.59-16.49-1-24.68-1.09a3.1,3.1,0,0,1,0-6.2h.05c8.31.13,16.73.51,25,1.1a3.1,3.1,0,0,1-.22,6.2Z"/><path class="cls-13" d="M1657.82,836a2.9,2.9,0,0,1-.58-.05c-4-.76-8.07-1.48-12.13-2.13a3.1,3.1,0,1,1,1-6.13q6.17,1,12.3,2.16a3.1,3.1,0,0,1-.58,6.15Z"/><path class="cls-26" d="M1681.19,948.14a5.48,5.48,0,0,0-6.25,1.26l-45.67,48.86a291,291,0,0,0-94.34-2.58L1492,944.47a5.49,5.49,0,0,0-6.18-1.6l-74.91,28.69a5.5,5.5,0,0,0-3.52,5.31l2.25,66.8a291.44,291.44,0,0,0-68.49,64.93l-66.61-5.85a5.5,5.5,0,0,0-5.5,3.24l-32.68,73.25a5.48,5.48,0,0,0,1.26,6.25l48.85,45.67a291.33,291.33,0,0,0-2.57,94.34l-51.21,42.94a5.49,5.49,0,0,0-1.6,6.18l28.69,74.9a5.49,5.49,0,0,0,5.31,3.53l66.8-2.25a291.24,291.24,0,0,0,64.93,68.49L1391,1585.9a5.49,5.49,0,0,0,3.24,5.5l73.25,32.68a5.48,5.48,0,0,0,6.25-1.26l45.67-48.85a291.33,291.33,0,0,0,94.34,2.57l42.94,51.21a5.49,5.49,0,0,0,6.18,1.6l74.9-28.69a5.49,5.49,0,0,0,3.53-5.31l-2.25-66.8a291.24,291.24,0,0,0,68.49-64.93l66.61,5.85a5.5,5.5,0,0,0,5.5-3.24l32.68-73.25a5.48,5.48,0,0,0-1.26-6.25l-48.85-45.67a291.33,291.33,0,0,0,2.57-94.34l51.21-42.94a5.51,5.51,0,0,0,1.6-6.18l-28.69-74.9a5.49,5.49,0,0,0-5.31-3.53l-66.8,2.25a291.44,291.44,0,0,0-64.93-68.49l5.85-66.61a5.51,5.51,0,0,0-3.24-5.5Z"/><path class="cls-27" d="M1574.48,1362a76.46,76.46,0,0,1-13.18-1.15,75.87,75.87,0,0,1-30.64-136.81h0a75.88,75.88,0,1,1,43.82,138Zm-.25-142.45a66.22,66.22,0,0,0-38.21,12.1h0a66.62,66.62,0,1,0,38.21-12.1Zm-40.89,8.3h0Z"/><path class="cls-27" d="M1574,1485.93c-79.77,0-155.13-48.5-185.32-127.32a197.38,197.38,0,0,1-13.12-70.69c0-79.76,48.51-155.11,127.33-185.3,2.73-1,5.48-2,8.25-2.95a199.69,199.69,0,0,1,28.72-7.27c1.27-.22,2.53-.43,3.8-.63l1.43,9.21a189.08,189.08,0,0,0-38.87,10.34h0c-97.27,37.25-146.1,146.69-108.85,244s146.7,146.1,244,108.84a188.93,188.93,0,0,0,49.16-325l5.74-7.33A198.23,198.23,0,0,1,1574,1485.93Z"/><path class="cls-13" d="M1242.51,1587.86a3.06,3.06,0,0,1-2.33-1.07c-2.68-3.07-5.47-6.11-8.28-9a3.11,3.11,0,0,1,4.48-4.31c2.88,3,5.73,6.12,8.47,9.27a3.08,3.08,0,0,1-.3,4.37A3,3,0,0,1,1242.51,1587.86Z"/><path class="cls-13" d="M1066.4,2016.53a3.1,3.1,0,0,1-.23-6.2c8-.59,16-1.57,23.81-2.9a3.1,3.1,0,1,1,1,6.12c-8,1.36-16.23,2.36-24.38,3Zm62.34-12.49a3.1,3.1,0,0,1-1-6c7.3-2.42,14.61-5.22,21.72-8.32l.66-.29a3.1,3.1,0,0,1,2.51,5.68l-.69.3c-7.29,3.17-14.77,6-22.24,8.52A3.4,3.4,0,0,1,1128.74,2004Zm57.45-27.22a3.11,3.11,0,0,1-1.66-5.73c6.72-4.26,13.33-8.9,19.62-13.77a3.1,3.1,0,1,1,3.8,4.91c-6.45,5-13.21,9.74-20.1,14.1A3.08,3.08,0,0,1,1186.19,1976.82Zm49.08-40.39a3.11,3.11,0,0,1-2.25-5.24c5.48-5.79,10.75-11.89,15.64-18.15a3.1,3.1,0,0,1,4.89,3.82c-5,6.42-10.41,12.67-16,18.6A3.09,3.09,0,0,1,1235.27,1936.43Zm37.7-51.16a3.09,3.09,0,0,1-2.7-4.62c3.9-6.94,7.52-14.15,10.76-21.42a3.1,3.1,0,1,1,5.67,2.52c-3.32,7.45-7,14.83-11,21.94A3.1,3.1,0,0,1,1273,1885.27Zm24.16-58.8a2.89,2.89,0,0,1-.82-.11,3.09,3.09,0,0,1-2.17-3.81c2.1-7.67,3.87-15.55,5.25-23.4a3.1,3.1,0,1,1,6.11,1.08c-1.41,8-3.22,16.1-5.38,24A3.1,3.1,0,0,1,1297.13,1826.47Zm9.17-62.9h-.07a3.1,3.1,0,0,1-3-3.17c0-1.82.06-3.65.06-5.47,0-6.16-.23-12.39-.68-18.52a3.1,3.1,0,0,1,6.19-.45c.46,6.28.69,12.65.69,19,0,1.87,0,3.74-.06,5.6A3.1,3.1,0,0,1,1306.3,1763.57Zm-6.5-63.25a3.1,3.1,0,0,1-3-2.41c-1.8-7.77-4-15.54-6.48-23.09a3.1,3.1,0,1,1,5.89-2c2.57,7.73,4.8,15.68,6.63,23.65a3.1,3.1,0,0,1-2.32,3.72A3.34,3.34,0,0,1,1299.8,1700.32Zm-21.73-59.75a3.11,3.11,0,0,1-2.77-1.7c-3.62-7.11-7.61-14.12-11.86-20.85a3.1,3.1,0,1,1,5.25-3.31c4.35,6.88,8.44,14.07,12.14,21.35a3.11,3.11,0,0,1-2.76,4.51Z"/><path class="cls-13" d="M1026.85,2016.4h-.25c-4.17-.33-8.38-.77-12.49-1.3a3.11,3.11,0,0,1-2.67-3.48,3.07,3.07,0,0,1,3.47-2.68c4,.52,8.11,1,12.19,1.27a3.11,3.11,0,0,1-.25,6.2Z"/><path class="cls-13" d="M846,1921.19a3.09,3.09,0,0,1-2.42-1.15c-2.65-3.28-5.23-6.63-7.66-10a3.1,3.1,0,0,1,5-3.66c2.37,3.24,4.89,6.5,7.48,9.71a3.1,3.1,0,0,1-2.41,5Z"/><path class="cls-13" d="M817.92,1878.44a3.12,3.12,0,0,1-2.76-1.67c-2.91-5.58-5.65-11.31-8.15-17q-1.05-2.42-2.06-4.86a3.1,3.1,0,1,1,5.74-2.35q1,2.37,2,4.73c2.44,5.61,5.12,11.21,8,16.66a3.11,3.11,0,0,1-2.74,4.54Zm-22.18-58.5a3.1,3.1,0,0,1-3-2.36c-1.92-7.79-3.5-15.76-4.7-23.71a3.1,3.1,0,1,1,6.14-.92c1.16,7.75,2.71,15.54,4.58,23.14a3.1,3.1,0,0,1-2.26,3.76A3.27,3.27,0,0,1,795.74,1819.94Zm-7.5-62.11h0a3.1,3.1,0,0,1-3.1-3.11c0-8,.4-16.16,1.16-24.14a3.08,3.08,0,0,1,3.39-2.8,3.11,3.11,0,0,1,2.79,3.39c-.74,7.79-1.12,15.72-1.13,23.57A3.11,3.11,0,0,1,788.24,1757.83Zm7.69-62.08a3.27,3.27,0,0,1-.75-.09,3.1,3.1,0,0,1-2.26-3.76c1.94-7.78,4.26-15.56,6.91-23.15a3.1,3.1,0,0,1,5.86,2c-2.59,7.41-4.86,15-6.75,22.61A3.1,3.1,0,0,1,795.93,1695.75Zm22.29-58.44a3,3,0,0,1-1.44-.36,3.1,3.1,0,0,1-1.3-4.19c3.76-7.13,7.87-14.13,12.23-20.83a3.1,3.1,0,1,1,5.2,3.39c-4.26,6.53-8.27,13.37-11.94,20.33A3.1,3.1,0,0,1,818.22,1637.31Zm35.6-51.41a3.1,3.1,0,0,1-2.32-5.17c5.34-6,11-11.81,16.87-17.28a3.11,3.11,0,1,1,4.24,4.54c-5.72,5.33-11.26,11-16.47,16.87A3.08,3.08,0,0,1,853.82,1585.9Zm46.93-41.33a3.1,3.1,0,0,1-1.76-5.66c6.61-4.52,13.52-8.8,20.55-12.71a3.1,3.1,0,0,1,3,5.42c-6.87,3.82-13.61,8-20.06,12.41A3.16,3.16,0,0,1,900.75,1544.57Zm55.48-28.86a3.1,3.1,0,0,1-1.09-6c7.52-2.83,15.25-5.34,23-7.47a3.1,3.1,0,1,1,1.65,6c-7.55,2.08-15.1,4.54-22.44,7.3A3.24,3.24,0,0,1,956.23,1515.71Zm60.78-14.82a3.11,3.11,0,0,1-.37-6.19c8-.94,16.07-1.52,24.12-1.72a3.18,3.18,0,0,1,3.18,3,3.11,3.11,0,0,1-3,3.18c-7.85.19-15.77.76-23.54,1.68Z"/><path class="cls-13" d="M1092,1503a3.29,3.29,0,0,1-.54,0c-4-.7-8-1.32-12.12-1.84a3.1,3.1,0,0,1,.79-6.15c4.18.53,8.35,1.16,12.41,1.88a3.1,3.1,0,0,1-.54,6.16Z"/><path class="cls-28" d="M1106,1565a3.09,3.09,0,0,0-3.52.76l-25.47,28a164.44,164.44,0,0,0-53.39-.76L999,1564.3a3.11,3.11,0,0,0-3.5-.86l-42.16,16.79a3.1,3.1,0,0,0-2,3l1.77,37.77a164.74,164.74,0,0,0-38.26,37.24l-37.73-2.81a3.09,3.09,0,0,0-3.08,1.87L856.1,1699a3.1,3.1,0,0,0,.77,3.53l28,25.47a165,165,0,0,0-.76,53.39l-28.64,24.67a3.09,3.09,0,0,0-.86,3.51l16.78,42.16a3.1,3.1,0,0,0,3,2l37.76-1.77a164.58,164.58,0,0,0,37.25,38.26l-2.82,37.73a3.11,3.11,0,0,0,1.87,3.09l41.69,17.94a3.09,3.09,0,0,0,3.52-.76l25.47-28a164.72,164.72,0,0,0,53.39.75l24.68,28.65a3.09,3.09,0,0,0,3.5.86l42.16-16.79a3.09,3.09,0,0,0,2-3l-1.77-37.77a164.74,164.74,0,0,0,38.26-37.24l37.73,2.81a3.09,3.09,0,0,0,3.08-1.87l17.95-41.68a3.12,3.12,0,0,0-.76-3.53l-28-25.47a165,165,0,0,0,.76-53.39l28.65-24.67a3.1,3.1,0,0,0,.85-3.51l-16.78-42.16a3.11,3.11,0,0,0-3-2L1184,1662a164.58,164.58,0,0,0-37.25-38.26l2.82-37.73a3.12,3.12,0,0,0-1.87-3.09Z"/><path class="cls-27" d="M1048.15,1801.89a44.91,44.91,0,1,1,26.28-8.51A44.91,44.91,0,0,1,1048.15,1801.89Zm-.14-80.58a35.77,35.77,0,1,0,5.73.46A35.8,35.8,0,0,0,1048,1721.31Z"/><path class="cls-27" d="M1047.76,1872.09a114.19,114.19,0,0,1-42.2-220.28h0a115.14,115.14,0,0,1,21.89-6.29l1.5-.27,1.55,9.18a105.31,105.31,0,0,0-21.5,6h0a104.82,104.82,0,1,0,102.48,14.11l5.65-7.4a114.25,114.25,0,0,1-69.37,204.92Z"/><path class="cls-29" d="M2641.49,1802.24c16.61,17.73,41.07,33,58.28,42.61-25.7,31.77-60.49,63.59-106.54,94.74l-13.17,29.57-42.23-50.61S2613.6,1880.85,2641.49,1802.24Z"/><path class="cls-30" d="M2253.93,1522.18a348.3,348.3,0,0,0,35.52-54.21c13.94-26.33,65.5-48.38,69.31-78.11,94.23,16.38,189.41,21.62,257.88,35.89,19.66,4.1,38.15,12.34,51.29,27.54,52.08,60.27,166.36,225.28,31.84,391.56-17.21-9.56-41.67-24.88-58.28-42.61,14.88-42,16.1-95.57-15.09-161.31a155.64,155.64,0,0,1-4,15.45c-43,136.18-45.28,249.51-45.18,275.63a8.63,8.63,0,0,1-5.41,8.06c-56.58,22.67-165.49,9.18-202,3.73a12.29,12.29,0,0,1-10.29-14c17.94-130-74.14-343.83-98.46-397.39A35.51,35.51,0,0,0,2253.93,1522.18Z"/><path class="cls-31" d="M2518.85,1300.69l10.9,111.41s-63.81,22.07-109.39-10.09l33.18-104.45Z"/><path class="cls-32" d="M2633.18,1627.71c18.9-54.4,14.94-117.47,13.67-132.27a3.13,3.13,0,0,0-3.5-2.84h0a3.14,3.14,0,0,0-2.8,3.39c1.24,14.3,5.18,76.34-13.35,129.66a3.14,3.14,0,0,0,1.88,4h0A3.19,3.19,0,0,0,2633.18,1627.71Z"/><path class="cls-33" d="M2004.29,1527.44c107.55,53.89,194.94-56.76,252.26-101.93,75.68-59.64,134.57-30.63,134.57-30.63l-80.71,154c-143.44,173.59-252.91,98.41-322,51.58A150.16,150.16,0,0,1,2004.29,1527.44Z"/><path class="cls-34" d="M1918.17,1500.12h0c54.7,18.56,48.32,21.65,86.12,27.32a150.16,150.16,0,0,0-15.88,73c-49.59-23.44-80.68-51.58-80.68-51.58-14.78-7.06-9.66-30.25-4.54-45A9.21,9.21,0,0,1,1918.17,1500.12Z"/><path class="cls-35" d="M2429.7,1202s-47.39,89.21-41.31,125.24,64.8,33.45,116.09,4.18l35.84-96.32Z"/><path class="cls-36" d="M2502.22,1284.09a3.67,3.67,0,0,1-1.61-5.38c3.8-5.8,10.92-17.64,13.19-28,0,0,8.52-5.45-21.69-12.68s-75.24-18.45-84.71-44.16c-9.23-25.07,40.28-57.6,79-7.38,1.47,1.91-20.9-28.54-19.43-30.46,6.34-8.25,23-25.39,46.17-15,21.67,9.72,24.11,25.6,23.81,33.6a3.66,3.66,0,0,0,4.33,3.74c11-2.09,37.24-3.88,49.51,23.08,10.11,22.22,3.54,34.79-2.44,40.94a3.67,3.67,0,0,0,1.57,6.09c7.2,2.2,4.77-1.31,3.84,15.55-1.28,23.32-15.64,30.88-23.06,29.82a3.66,3.66,0,0,0-3.26,1.16c-6.37,7-35,36.94-66.08,40.55a3.71,3.71,0,0,1-3.89-4.9l13.43-39a3.69,3.69,0,0,0-2-4.58Z"/><path class="cls-37" d="M2496.82,1289.63s33.74-23.15,36.21-3.66-30.39,28.24-46.66,21Z"/><path class="cls-4" d="M1888.17,2605.72l.69,44c1.2,75.53,43.45,136.1,94.38,135.29l60.55-1c50.92-.8,91.24-62.69,90-138.22l-.7-44q-.06-4.38-.32-8.74l-77-1304-131.9,2.09L1888.21,2597C1888.14,2599.89,1888.12,2602.8,1888.17,2605.72Zm61.24-4.43c-.9-56.87,25.76-103.4,59.55-103.94s61.91,45.13,62.82,102-25.77,103.4-59.55,103.93S1950.31,2658.15,1949.41,2601.29Z"/><path class="cls-4" d="M1850.3,846.28l4,255.4a58.6,58.6,0,0,0,23.58,46.07l74.75,55.71a58.62,58.62,0,0,0,71.53-1.13l72.95-58a58.62,58.62,0,0,0,22.11-46.8l-4-255.4c-.62-38.52,44.62-60.46,73.91-35.42,70.06,59.88,115.37,150.11,117,251.73,2.91,183.67-138.3,312.28-315,315.08s-321.88-121.28-324.79-305c-1.61-101.61,40.81-193.23,108.94-255.31C1803.79,787.27,1849.69,807.76,1850.3,846.28Z"/><path class="cls-6" d="M1874.37,845.9l4.05,255.4a58.63,58.63,0,0,0,23.58,46.07l74.75,55.71a58.62,58.62,0,0,0,71.53-1.13l72.95-58a58.63,58.63,0,0,0,22.11-46.8l-4-255.4c-.61-38.52,44.62-60.46,73.91-35.43,70.06,59.89,115.37,150.12,117,251.73,2.91,183.67-138.3,312.29-315,315.09s-321.88-121.28-324.79-304.95c-1.61-101.62,40.81-193.24,108.94-255.31C1827.86,786.88,1873.76,807.37,1874.37,845.9Z"/><path class="cls-6" d="M1907.37,2605.42l.69,44c1.2,75.53,43.45,136.11,94.38,135.3l60.55-1c50.92-.81,91.24-62.69,90-138.22l-.7-44c0-2.91-.15-5.83-.32-8.73l-77-1304-131.9,2.09-35.66,1305.81Q1907.3,2601,1907.37,2605.42Zm61.24-4.44c-.9-56.86,25.76-103.39,59.55-103.93s61.91,45.13,62.82,102-25.77,103.39-59.55,103.93S1969.51,2657.85,1968.61,2601Z"/><path class="cls-38" d="M1898.33,1544.94l6,12.69a6.45,6.45,0,0,0,5.1,3.66,119.22,119.22,0,0,0,52.73-6.2,10,10,0,0,0,5.53-14.21,209,209,0,0,0-25-36,25,25,0,0,0-12.28-7.81l-13.25-3.65a12.18,12.18,0,0,0-14.09,6.11c-6,11.89-7.86,25.4-6.24,40.22A16.11,16.11,0,0,0,1898.33,1544.94Z"/><path class="cls-39" d="M2425.53,2762.12a10.8,10.8,0,0,1,.28-2.75c13.68-54.22,81.56-88,81.56-88l26.9,2.11c15.47,47.8,13.48,77.11,11,90.16-.06.37-.18.72-.27,1.07C2522.8,2766.69,2477.13,2768,2425.53,2762.12Z"/><path class="cls-4" d="M2545,2764.71a11.68,11.68,0,0,1-8.54,8.62c-31.56,6.64-81.73,1.3-102.8-1.46-4.64-.6-8-4.9-8.12-9.75C2477.13,2768,2522.8,2766.69,2545,2764.71Z"/><path class="cls-4" d="M2299,2764.16c29.71-.83,45.07-4.33,53-7.58,0,3,0,6-.1,9.08a5.86,5.86,0,0,1-5.59,6l-163.12-1c-5.21,0-8.25-6.07-6-10.84C2198.61,2761.49,2253.08,2765.44,2299,2764.16Z"/><path class="cls-40" d="M2177.22,2759.73a8.17,8.17,0,0,1,.65-1.24c14.41-20.12,51.1-60.21,123.6-77.59l34.78-1.1s15.49,26.92,15.78,76.78c-8,3.25-23.31,6.75-53,7.58C2253.08,2765.44,2198.61,2761.49,2177.22,2759.73Z"/><path class="cls-41" d="M2370.6,1908s-93.69,349.7-92.17,779.55c0,7.84,15,6.48,22.12,8.1,10.55,2.38,26,5.2,38.89,4.82,6.85-.21,12.58-5.65,13.73-12.89,11.76-73.91,79.26-490.27,117.72-557.86,0,0,14.76,368.34,6.67,560.73-.2,4.78,13.62,11.42,18.06,12a133.83,133.83,0,0,0,31.22-.1c5.2-.59,19.38,6.21,20.12.65,8.38-62.55,46.63-445.88,44.58-714.08-.12-15.13-37.33-80.89-37.33-80.89Z"/><path class="cls-42" d="M2474,2106.82a3.18,3.18,0,0,0,3.06-2.37c6.95-26.83,59-56.32,59.57-56.61a3.17,3.17,0,0,0-3.1-5.52c-2.23,1.26-55,31.11-62.6,60.54a3.16,3.16,0,0,0,3.07,4Z"/><path class="cls-43" d="M2367,1601.38h130.82c7.8,0,26.59,5.38,28.36,13l48.45,127.52,10.35,83.35,6.57,163.67-237.81-9.26-16.12-237.76,22.15-134.37A7.32,7.32,0,0,1,2367,1601.38Z"/><path class="cls-44" d="M2364.06,1626.77l-4.47-237a3.25,3.25,0,0,1,3.77-3.27l30.48,4.9a7,7,0,0,1,5.9,7.24l-4.93,227.89a3.38,3.38,0,0,1-3.39,3.32h-24.24A3.12,3.12,0,0,1,2364.06,1626.77Z"/><path class="cls-45" d="M2495.45,1631.05a5.6,5.6,0,0,1-4.25-6.69l46.21-206a7.08,7.08,0,0,1,7.51-5.18l30.88,2.94a6.9,6.9,0,0,1,5.85,9.19l-63.05,206.24a4.94,4.94,0,0,1-5.8,3.38Z"/><circle class="cls-46" cx="2381.64" cy="1615.57" r="8.06" transform="translate(-444.81 2157.26) rotate(-45)"/><circle class="cls-47" cx="2505.27" cy="1617.22" r="8.06" transform="translate(-409.77 2245.17) rotate(-45)"/><path class="cls-48" d="M2380.82,1674.61V1809a6.4,6.4,0,0,0,6.21,6.4l114.16,3.51a6.41,6.41,0,0,0,6.6-6.4V1674.61a6.4,6.4,0,0,0-6.4-6.41H2387.23A6.41,6.41,0,0,0,2380.82,1674.61Z"/></g></g></g></svg>